{"title":"Kick-Ass 2 2013 BDRip 1080p Dual Audio [ Hin BD ORG 5.1-Eng 5.1]","uid":9288330,"size":3379084316,"categoryP":"video","categoryS":"hd___movies","magnet":"?xt=urn:btih:f0924afe658b024491b6601e81912c483a8e84c8&amp;dn=Kick-Ass+2+2013+BDRip+1080p+Dual+Audio+%5B+Hin+BD+ORG+5.1-Eng+5.1%5D&amp;tr=udp%3A%2F%2Ftracker.openbittorrent.com%3A80&amp;tr=udp%3A%2F%2Fopen.demonii.com%3A1337&amp;tr=udp%3A%2F%2Ftracker.coppersurfer.tk%3A6969&amp;tr=udp%3A%2F%2Fexodus.desync.com%3A6969","seeders":1,"leechers":1,"uploader":"tariq51","files":8,"time":1386050840,"description":"                                           [IMG]http://i.imgur.com/LhRnzSt.png[/IMG]\n\n\n\n[b][i][size=3][color=blue]RELEASE TITLE:[/color][/size][/i][/b]\n          ======================================\n[b][i][size=3][color=maroon]Kick-Ass 2 2013 BDRip 1080p Dual Audio [ Hin BD ORG 5.1-Eng 5.1] Tariq Qureshi.mkv[/color][/size][/i][/b]\n\n\n                     =================================================\n[b][i][size=2][color=fuchsia]THANKS TO \n  GPSOFT FOR HINDI AUDIO AND THNAK TO MOHSIN PATHAN FOR HELP [/color][/size][/i][/b]\n                            \n                                         \n========================================================================\n[IMG]http://i.imgur.com/f6mToiK.jpg[/IMG]\n===========================================\n\n[b][i][size=3][color=red]General:[/color][/size][/i][/b]\n======================================\n[b][i][size=2][color=green]IMDB LINK                                :http://www.imdb.com/title/tt1650554/\nFormat                                   : Matroska\nFormat version                           : Version 4 / Version 2\nFile size                                : 3.06 GiB\nDuration                                 : 1h 43mn\nOverall bit rate                         : 4 247 Kbps\nEncoded date                             : UTC 2013-12-02 08:23:54\nMovie name                               : Kick-Ass 2 2013 BDRip 1080p Dual Audio [ Hin BD ORG 5.1-Eng 5.1] Tariq Qureshi.mkv[/color][/size][/i][/b]\n                                   \n=======================================================================================\n[b][i][size=3][color=red]VIDEO:[/color][/size][/i][/b]\n                            =======================\n\n[b][i][size=2][color=green]ID                                       : 1\nFormat                                   : AVC\nFormat/Info                              : Advanced Video Codec\nFormat profile                           : &lt;a class=&quot;__cf_email__&quot; href=&quot;/cdn-cgi/l/email-protection&quot; data-cfemail=&quot;88c0e1efe0c8c4bca6b9&quot;&gt;[email&amp;#160;protected]&lt;/a&gt;&lt;script cf-hash='f9e31' type=&quot;text/javascript&quot;&gt;\n/* &lt;![CDATA[ */!function(){try{var t=&quot;currentScript&quot;in document?document.currentScript:function(){for(var t=document.getElementsByTagName(&quot;script&quot;),e=t.length;e--;)if(t[e].getAttribute(&quot;cf-hash&quot;))return t[e]}();if(t&amp;&amp;t.previousSibling){var e,r,n,i,c=t.previousSibling,a=c.getAttribute(&quot;data-cfemail&quot;);if(a){for(e=&quot;&quot;,r=parseInt(a.substr(0,2),16),n=2;a.length-n;n+=2)i=parseInt(a.substr(n,2),16)^r,e+=String.fromCharCode(i);e=document.createTextNode(e),c.parentNode.replaceChild(e,c)}}}catch(u){}}();/* ]]&gt; */&lt;/script&gt;\nFormat settings, CABAC                   : Yes\nFormat settings, ReFrames                : 5 frames\nCodec ID                                 : V_MPEG4/ISO/AVC\nDuration                                 : 1h 43mn\nBit rate                                 : 3 350 Kbps\nWidth                                    : 1 920 pixels\nHeight                                   : 800 pixels\nDisplay aspect ratio                     : 2.40:1\nFrame rate mode                          : Constant\nFrame rate                               : 23.976 fps\nLanguage                                 : English\nDefault                                  : Yes\nForced                                   : No[/color][/size][/i][/b]\n=====================================================================================\n[b][i][size=3][color=red]AUDIO:1[/color][/size][/i][/b]\n          ================\n[b][i][size=2][color=green]ID                                       : 2\nFormat                                   : AC-3\nFormat/Info                              : Audio Coding 3\nMode extension                           : CM (complete main)\nFormat settings, Endianness              : Big\nCodec ID                                 : A_AC3\nDuration                                 : 1h 43mn\nBit rate mode                            : Constant\nBit rate                                 : 448 Kbps\nChannel(s)                               : 6 channels\nChannel positions                        : Front: L C R, Side: L R, LFE\nSampling rate                            : 48.0 KHz\nBit depth                                : 16 bits\nCompression mode                         : Lossy\nStream size                              : 330 MiB (11%)\nTitle                                    : 5.1 Tariq Qureshi\nLanguage                                 : English\nDefault                                  : No\nForced                                   : No[/color][/size][/i][/b]\n\n===================================================================================\n[b][i][size=3][color=red]AUDIO:2[/color][/size][/i][/b]\n            ================\n[b][i][size=2][color=green]ID                                       : 3\nFormat                                   : AC-3\nFormat/Info                              : Audio Coding 3\nMode extension                           : CM (complete main)\nFormat settings, Endianness              : Big\nCodec ID                                 : A_AC3\nDuration                                 : 1h 43mn\nBit rate mode                            : Constant\nBit rate                                 : 448 Kbps\nChannel(s)                               : 6 channels\nChannel positions                        : Front: L C R, Side: L R, LFE\nSampling rate                            : 48.0 KHz\nBit depth                                : 16 bits\nCompression mode                         : Lossy\nStream size                              : 330 MiB (11%)\nTitle                                    : 5.1 BD ORG Tariq Qureshi\nLanguage                                 : Hindi\nDefault                                  : Yes\nForced                                   : No\n[/color][/size][/i][/b]\n\n===================================================================================\n[b][i][size=3][color=red][IMG]http://i.imgur.com/Q3KFG70.gif[/IMG][/color][/size][/i][/b]\n            =========================\n[IMG]http://i.imgur.com/uClipLF.png[/IMG]\n[IMG]http://i.imgur.com/rXqiTVD.png[/IMG]\n[IMG]http://i.imgur.com/52jv6vN.jpg[/IMG]\n[IMG]http://i.imgur.com/YuAZwL2.png[/IMG]\n[IMG]http://i.imgur.com/GHqvs6Q.jpg[/IMG]\n[IMG]http://i.imgur.com/kSn6NOi.jpg[/IMG]\n===================================================================================\n                                                [IMG]http://i.imgur.com/MO8y8TI.jpg[/IMG]\n===================================================================================\n\n[b][i][size=3][color=red]SEEDING FROM HIGH SPEED SEEDBOX[/color][/size][/i][/b]","torrent":{"xt":"urn:btih:f0924afe658b024491b6601e81912c483a8e84c8","amp;dn":"Kick-Ass+2+2013+BDRip+1080p+Dual+Audio+%5B+Hin+BD+ORG+5.1-Eng+5.1%5D","amp;tr":["udp%3A%2F%2Ftracker.openbittorrent.com%3A80","udp%3A%2F%2Fopen.demonii.com%3A1337","udp%3A%2F%2Ftracker.coppersurfer.tk%3A6969","udp%3A%2F%2Fexodus.desync.com%3A6969"],"infoHash":"f0924afe658b024491b6601e81912c483a8e84c8","infoHashBuffer":{"type":"Buffer","data":[240,146,74,254,101,139,2,68,145,182,96,30,129,145,44,72,58,142,132,200]},"announce":[],"urlList":[]}}